<?xml version="1.0"?>
<svg xmlns="http://www.w3.org/2000/svg" id="bold" enable-background="new 0 0 24 24" height="512px" viewBox="0 0 24 24" width="512px" class=""><g><circle cx="12" cy="9.5" r="1.5" data-original="#000000" class="active-path" data-old_color="#000000" fill="#6649B8"/><path d="m14.25 15h-4.5c-.414 0-.75-.336-.75-.75 0-1.241 1.009-2.25 2.25-2.25h1.5c1.241 0 2.25 1.009 2.25 2.25 0 .414-.336.75-.75.75z" data-original="#000000" class="active-path" data-old_color="#000000" fill="#6649B8"/><path d="m12.22 4.78 2 2c.323.323.857.285 1.13-.08l1.5-2c.37-.494.016-1.2-.6-1.2h-1.135c-1.081-2.253-2.564-3.5-4.215-3.5-3.832 0-5.9 6.183-5.9 12s2.068 12 5.9 12c2.07 0 3.915-2.008 4.946-5.378.281-.668-.216-1.392-.926-1.392-.442 0-.832.291-.958.714-.736 2.464-1.938 4.056-3.062 4.056-1.841 0-3.9-4.276-3.9-10s2.059-10 3.9-10c.643 0 1.332.545 1.944 1.5h-.094c-.666 0-1.001.809-.53 1.28z" data-original="#000000" class="active-path" data-old_color="#000000" fill="#6649B8"/><path d="m20.5 8.818v-1.318c0-.616-.708-.971-1.2-.6l-2 1.5c-.364.273-.403.807-.08 1.13l2 2c.429.429 1.189.203 1.267-.442.963.623 1.513 1.323 1.513 1.972 0 1.86-4.276 3.94-10 3.94-4.721 0-10-1.685-10-3.94 0-1.131 1.595-2.35 4.062-3.104.528-.161.826-.72.665-1.248-.162-.528-.721-.828-1.249-.665-3.481 1.064-5.478 2.893-5.478 5.017 0 4.327 7.36 5.94 12 5.94 5.817 0 12-2.082 12-5.94 0-1.652-1.247-3.146-3.5-4.242z" data-original="#000000" class="active-path" data-old_color="#000000" fill="#6649B8"/></g> </svg>
