<?xml version="1.0" encoding="UTF-8" standalone="no"?>
<svg 
    role="img" 
    xmlns="http://www.w3.org/2000/svg" 
    width="1000mm"
    height="1000mm"
    viewBox="0 0 1000 1000"
    style="max-width:1.6em; height: auto;">
    
    <path 
        id="path" 
        style="opacity:1;vector-effect:none;fill:#000000;fill-opacity:1;"
        d=" M 981 484C 987 492 987 503 981 511C 876 670 688 748 501 749C 315 750 127 673 21 515C 15 507 15 496 21 487C 127 329 314 250 501 249C 503 249 504 249 505 249C 691 250 877 327 981 484C 981 484 981 484 981 484M 501 299C 334 300 169 369 72 501C 168 634 334 700 501 699C 668 699 834 630 930 498C 835 366 671 300 505 299C 504 299 503 299 501 299C 501 299 501 299 501 299M 624 376C 657 409 675 454 675 500C 675 546 657 591 624 624C 591 657 546 675 500 675C 454 675 409 657 376 624C 343 591 325 546 325 500C 325 468 334 437 350 410C 356 428 373 439 391 439C 415 439 434 420 434 396C 434 377 422 360 403 354C 432 335 466 325 500 325C 546 325 591 343 624 376C 624 376 624 376 624 376"
        transform="">
    </path>    
</svg>